<?xml version="1.0" encoding="utf-8"?>
<!-- Generator: Adobe Illustrator 23.0.5, SVG Export Plug-In . SVG Version: 6.00 Build 0)  -->
<svg version="1.1" id="Layer_1" xmlns="http://www.w3.org/2000/svg" xmlns:xlink="http://www.w3.org/1999/xlink" x="0px" y="0px"
	 viewBox="0 0 4.4 4.5" style="enable-background:new 0 0 4.4 4.5;" xml:space="preserve">
<style type="text/css">
	.st0{fill:#428BBD;}
	.st1{fill:url(#SVGID_1_);}
	.st2{fill:url(#SVGID_2_);}
	.st3{fill:url(#SVGID_3_);}
</style>
<title>facebook-01</title>
<path id="Facebook" class="st0" d="M4.2,0h-4C0.1,0,0,0.1,0,0.3v4c0,0.1,0.1,0.3,0.3,0.3h2.1V2.8H1.8V2.1h0.6V1.6
	c0-0.4,0.3-0.8,0.7-0.9c0,0,0.1,0,0.1,0h0.5v0.6H3.4c-0.3,0-0.3,0.1-0.3,0.3v0.4h0.7L3.7,2.7H3.1v1.7h1.1c0.1,0,0.2-0.1,0.2-0.3v-4
	C4.4,0.1,4.3,0,4.2,0z"/>
<g>
	<title>instagram-01</title>
	<linearGradient id="SVGID_1_" gradientUnits="userSpaceOnUse" x1="-3.2075" y1="9.1096" x2="-4.469" y2="4.4014">
		<stop  offset="0" style="stop-color:#FFAB15"/>
		<stop  offset="5.569441e-02" style="stop-color:#FFA71B"/>
		<stop  offset="0.1322" style="stop-color:#FE9C2D"/>
		<stop  offset="0.2208" style="stop-color:#FD8B4A"/>
		<stop  offset="0.3185" style="stop-color:#FB7272"/>
		<stop  offset="0.4237" style="stop-color:#F952A6"/>
		<stop  offset="0.5335" style="stop-color:#F72CE5"/>
		<stop  offset="0.5615" style="stop-color:#F622F6"/>
		<stop  offset="0.5797" style="stop-color:#EB24F5"/>
		<stop  offset="0.7903" style="stop-color:#6E39EB"/>
		<stop  offset="0.9343" style="stop-color:#1F47E5"/>
		<stop  offset="1" style="stop-color:#004CE3"/>
	</linearGradient>
	<path class="st1" d="M-3.8,4.9h0.9c0.1,0,0.3,0,0.4,0.1c0.1,0,0.2,0.1,0.3,0.2c0.1,0.1,0.2,0.2,0.2,0.3c0,0.1,0,0.3,0,0.4
		c0,0.2,0,0.3,0,0.9s0,0.7,0,0.9c0,0.1,0,0.3,0,0.4c0,0.1-0.1,0.2-0.2,0.3c-0.1,0.1-0.2,0.1-0.3,0.2c-0.1,0.1-0.3,0.1-0.4,0.1h-1.8
		c-0.1,0-0.3,0-0.4-0.1c-0.1,0-0.2-0.1-0.3-0.2c-0.1-0.1-0.1-0.2-0.2-0.3c-0.1-0.1-0.1-0.3-0.1-0.4c0-0.2,0-0.3,0-0.9s0-0.7,0-0.9
		c0-0.1,0-0.3,0.1-0.4c0-0.1,0.1-0.2,0.2-0.3C-5.3,5.1-5.3,5-5.2,5C-5,5-4.9,4.9-4.7,4.9L-3.8,4.9 M-3.8,4.5h-0.9
		c-0.2,0-0.4,0-0.6,0.1c-0.1,0.1-0.3,0.1-0.4,0.3C-5.8,5-5.9,5.1-6,5.3C-6,5.5-6.1,5.6-6.1,5.8c0,0.2,0,0.3,0,0.9s0,0.7,0,0.9
		C-6.1,7.9-6,8-6,8.2c0.1,0.2,0.1,0.3,0.3,0.4c0.1,0.1,0.2,0.2,0.4,0.3C-5.1,8.9-4.9,9-4.8,9h1.8c0.2,0,0.4,0,0.5-0.1
		c0.3-0.1,0.5-0.4,0.7-0.7C-1.7,8-1.6,7.9-1.6,7.7c0-0.2,0-0.3,0-0.9s0-0.7,0-0.9c0-0.2,0-0.4-0.1-0.5C-1.8,5-2.1,4.8-2.4,4.6
		c-0.2-0.1-0.4-0.1-0.5-0.1L-3.8,4.5z"/>
	<linearGradient id="SVGID_2_" gradientUnits="userSpaceOnUse" x1="-3.5451" y1="7.8687" x2="-4.1419" y2="5.6415">
		<stop  offset="0" style="stop-color:#FFAB15"/>
		<stop  offset="5.569441e-02" style="stop-color:#FFA71B"/>
		<stop  offset="0.1322" style="stop-color:#FE9C2D"/>
		<stop  offset="0.2208" style="stop-color:#FD8B4A"/>
		<stop  offset="0.3185" style="stop-color:#FB7272"/>
		<stop  offset="0.4237" style="stop-color:#F952A6"/>
		<stop  offset="0.5335" style="stop-color:#F72CE5"/>
		<stop  offset="0.5615" style="stop-color:#F622F6"/>
		<stop  offset="0.5797" style="stop-color:#EB24F5"/>
		<stop  offset="0.7903" style="stop-color:#6E39EB"/>
		<stop  offset="0.9343" style="stop-color:#1F47E5"/>
		<stop  offset="1" style="stop-color:#004CE3"/>
	</linearGradient>
	<path class="st2" d="M-3.8,5.6C-4.5,5.6-5,6.1-5,6.7c0,0.6,0.5,1.2,1.1,1.2c0.6,0,1.2-0.5,1.2-1.1c0,0,0,0,0,0
		C-2.7,6.1-3.2,5.6-3.8,5.6z M-3.8,7.5c-0.4,0-0.7-0.4-0.7-0.8S-4.2,6-3.8,6c0.4,0,0.7,0.3,0.7,0.7C-3.1,7.2-3.4,7.5-3.8,7.5
		C-3.8,7.5-3.8,7.5-3.8,7.5z"/>
	<linearGradient id="SVGID_3_" gradientUnits="userSpaceOnUse" x1="-2.5707" y1="5.8239" x2="-2.7108" y2="5.301">
		<stop  offset="0" style="stop-color:#FFAB15"/>
		<stop  offset="5.569441e-02" style="stop-color:#FFA71B"/>
		<stop  offset="0.1322" style="stop-color:#FE9C2D"/>
		<stop  offset="0.2208" style="stop-color:#FD8B4A"/>
		<stop  offset="0.3185" style="stop-color:#FB7272"/>
		<stop  offset="0.4237" style="stop-color:#F952A6"/>
		<stop  offset="0.5335" style="stop-color:#F72CE5"/>
		<stop  offset="0.5615" style="stop-color:#F622F6"/>
		<stop  offset="0.5797" style="stop-color:#EB24F5"/>
		<stop  offset="0.7903" style="stop-color:#6E39EB"/>
		<stop  offset="0.9343" style="stop-color:#1F47E5"/>
		<stop  offset="1" style="stop-color:#004CE3"/>
	</linearGradient>
	<circle class="st3" cx="-2.6" cy="5.6" r="0.3"/>
</g>
</svg>
