<svg id="Layer_1" data-name="Layer 1" xmlns="http://www.w3.org/2000/svg" xmlns:xlink="http://www.w3.org/1999/xlink" viewBox="0 0 4.45 4.52"><defs><style>.cls-1{fill:url(#linear-gradient);}.cls-2{fill:url(#linear-gradient-2);}.cls-3{fill:url(#linear-gradient-3);}</style><linearGradient id="linear-gradient" x1="2.85" y1="4.63" x2="1.59" y2="-0.07" gradientUnits="userSpaceOnUse"><stop offset="0" stop-color="#ffab15"/><stop offset="0.06" stop-color="#ffa71b"/><stop offset="0.13" stop-color="#fe9c2d"/><stop offset="0.22" stop-color="#fd8b4a"/><stop offset="0.32" stop-color="#fb7272"/><stop offset="0.42" stop-color="#f952a6"/><stop offset="0.53" stop-color="#f72ce5"/><stop offset="0.56" stop-color="#f622f6"/><stop offset="0.58" stop-color="#eb24f5"/><stop offset="0.79" stop-color="#6e39eb"/><stop offset="0.93" stop-color="#1f47e5"/><stop offset="1" stop-color="#004ce3"/></linearGradient><linearGradient id="linear-gradient-2" x1="2.51" y1="3.39" x2="1.92" y2="1.17" xlink:href="#linear-gradient"/><linearGradient id="linear-gradient-3" x1="3.49" y1="1.35" x2="3.35" y2="0.83" xlink:href="#linear-gradient"/></defs><title>instagram-01</title><path class="cls-1" d="M2.23.45h.9a1.15,1.15,0,0,1,.41.08A.58.58,0,0,1,3.8.71.55.55,0,0,1,4,1a1.48,1.48,0,0,1,0,.42v1.8A1.48,1.48,0,0,1,4,3.6a.56.56,0,0,1-.17.25A.66.66,0,0,1,3.54,4a1.15,1.15,0,0,1-.41.08H1.31A1.15,1.15,0,0,1,.9,4a.56.56,0,0,1-.26-.17A.6.6,0,0,1,.48,3.6,1,1,0,0,1,.4,3.18V1.38A1,1,0,0,1,.48,1,.6.6,0,0,1,.64.71.56.56,0,0,1,.9.54,1.15,1.15,0,0,1,1.31.46h.92m0-.4H1.3a1.52,1.52,0,0,0-.55.1A1.11,1.11,0,0,0,.36.42,1.2,1.2,0,0,0,.1.82a1.4,1.4,0,0,0-.1.54V3.2a1.4,1.4,0,0,0,.1.54,1.2,1.2,0,0,0,.26.4,1.11,1.11,0,0,0,.39.26,1.79,1.79,0,0,0,.55.11H3.15a1.73,1.73,0,0,0,.54-.11,1.17,1.17,0,0,0,.65-.66,1.62,1.62,0,0,0,.11-.54V1.36A1.62,1.62,0,0,0,4.34.82,1.17,1.17,0,0,0,3.69.16,1.74,1.74,0,0,0,3.15,0Z"/><path class="cls-2" d="M2.23,1.13A1.15,1.15,0,1,0,3.37,2.29h0A1.15,1.15,0,0,0,2.23,1.13ZM2.23,3A.74.74,0,1,1,3,2.28.74.74,0,0,1,2.26,3Z"/><circle class="cls-3" cx="3.42" cy="1.09" r="0.27"/></svg>