<svg id="Layer_1" data-name="Layer 1" xmlns="http://www.w3.org/2000/svg" viewBox="0 0 4.45 4.52"><defs><style>.cls-1{fill:#d41d00;}</style></defs><title>pinterest-01</title><path class="cls-1" d="M2.23,0A2.23,2.23,0,1,0,4.45,2.25,2.23,2.23,0,0,0,2.23,0Zm.19,2.78a.37.37,0,0,1-.34-.18L2,3a1.66,1.66,0,0,1-.26.47h0a1.63,1.63,0,0,1,0-.54l.18-.77a.45.45,0,0,1,0-.23c0-.21.12-.37.26-.37a.19.19,0,0,1,.2.2h0a2.17,2.17,0,0,1-.13.5.25.25,0,0,0,.18.28h.05c.27,0,.45-.34.45-.75a.53.53,0,0,0-.5-.56h-.1a.66.66,0,0,0-.69.64v0a.37.37,0,0,0,.09.28v.19s0,0-.08,0a.55.55,0,0,1-.29-.54,1,1,0,0,1,1-.9.85.85,0,0,1,.91.8v0c-.08.62-.39,1-.85,1Z"/></svg>