<svg id="Layer_1" data-name="Layer 1" xmlns="http://www.w3.org/2000/svg" viewBox="0 0 4.45 4.52"><defs><style>.cls-1{fill:#0083d4;}</style></defs><title>twitter-01</title><path id="Twitter" class="cls-1" d="M4.45.83A1.58,1.58,0,0,1,3.93,1a.9.9,0,0,0,.4-.5,2,2,0,0,1-.58.22.91.91,0,0,0-1.58.62.74.74,0,0,0,0,.21A2.59,2.59,0,0,1,.31.57.93.93,0,0,0,.59,1.79a1,1,0,0,1-.41-.12h0a.9.9,0,0,0,.73.89H.5a.91.91,0,0,0,.85.63,1.78,1.78,0,0,1-1.13.39H0A2.57,2.57,0,0,0,1.4,4,2.58,2.58,0,0,0,4,1.43H4V1.3A2,2,0,0,0,4.45.83Z"/></svg>